<svg xmlns="http://www.w3.org/2000/svg" xmlns:xlink="http://www.w3.org/1999/xlink" contentStyleType="text/css" data-diagram-type="DESCRIPTION" height="792px" preserveAspectRatio="none" style="width:855px;height:792px;background:#FFFFFF;" version="1.1" viewBox="0 0 855 792" width="855px" zoomAndPan="magnify"><defs/><g><!--cluster Unity Project--><g class="cluster" data-entity="Unity Project" data-source-line="1" data-uid="ent0002" id="cluster_Unity Project"><rect fill="none" height="388.97" rx="2.5" ry="2.5" style="stroke:#181818;stroke-width:1;" width="514" x="246" y="7"/><text fill="#000000" font-family="sans-serif" font-size="14" font-weight="bold" lengthAdjust="spacing" textLength="102.8945" x="451.5527" y="21.9951">Unity Project</text></g><!--cluster Training--><g class="cluster" data-entity="Training" data-source-line="20" data-uid="ent0005" id="cluster_Training"><rect fill="none" height="336.67" rx="2.5" ry="2.5" style="stroke:#181818;stroke-width:1;" width="322" x="315" y="449.97"/><text fill="#000000" font-family="sans-serif" font-size="14" font-weight="bold" lengthAdjust="spacing" textLength="65.4541" x="443.2729" y="464.9651">Training</text></g><!--cluster Data Processing--><g class="cluster" data-entity="Data Processing" data-source-line="35" data-uid="ent0008" id="cluster_Data Processing"><rect fill="none" height="313.58" rx="2.5" ry="2.5" style="stroke:#181818;stroke-width:1;" width="257" x="7" y="444.97"/><text fill="#000000" font-family="sans-serif" font-size="14" font-weight="bold" lengthAdjust="spacing" textLength="128.1123" x="71.4438" y="459.9651">Data Processing</text></g><!--entity SCRIPTS--><g class="entity" data-entity="SCRIPTS" data-source-line="2" data-uid="ent0003" id="entity_SCRIPTS"><path d="M264.21,155.3 L305.21,155.3 A3.75,3.75 0 0 1 307.71,157.8 L314.71,176.3 L543.7871,176.3 A2.5,2.5 0 0 1 546.2871,178.8 L546.2871,377.4719 A2.5,2.5 0 0 1 543.7871,379.9719 L264.21,379.9719 A2.5,2.5 0 0 1 261.71,377.4719 L261.71,157.8 A2.5,2.5 0 0 1 264.21,155.3" fill="#F1F1F1" style="stroke:#181818;stroke-width:0.5;"/><line style="stroke:#181818;stroke-width:0.5;" x1="261.71" x2="314.71" y1="176.3" y2="176.3"/><text fill="#000000" font-family="sans-serif" font-size="14" lengthAdjust="spacing" textLength="254.5771" x="271.71" y="196.2951">Project/Assets/ML-Agents/Examples/</text><line style="stroke:#181818;stroke-width:1;" x1="262.71" x2="545.2871" y1="199.5969" y2="199.5969"/><text fill="#000000" font-family="sans-serif" font-size="14" lengthAdjust="spacing" textLength="102.9834" x="271.71" y="216.592">3DBall/Scripts/</text><line style="stroke:#181818;stroke-width:1;" x1="262.71" x2="545.2871" y1="223.8937" y2="223.8937"/><text fill="#000000" font-family="sans-serif" font-size="14" lengthAdjust="spacing" textLength="106.5313" x="271.71" y="240.8889">Ball3DAgent.cs</text><text fill="#000000" font-family="sans-serif" font-size="14" lengthAdjust="spacing" textLength="139.2822" x="271.71" y="257.1857">Ball3DHardagent.cs</text><line style="stroke:#181818;stroke-width:1;" x1="262.71" x2="545.2871" y1="264.4875" y2="264.4875"/><text fill="#000000" font-family="sans-serif" font-size="14" lengthAdjust="spacing" textLength="104.5488" x="271.71" y="281.4826">Soccer/Scripts/</text><line style="stroke:#181818;stroke-width:1;" x1="262.71" x2="545.2871" y1="288.7844" y2="288.7844"/><text fill="#000000" font-family="sans-serif" font-size="14" lengthAdjust="spacing" textLength="108.0967" x="271.71" y="305.7795">AgentSoccer.cs</text><text fill="#000000" font-family="sans-serif" font-size="14" lengthAdjust="spacing" textLength="161.793" x="271.71" y="322.0764">SoccerBallController.cs</text><text fill="#000000" font-family="sans-serif" font-size="14" lengthAdjust="spacing" textLength="115.2061" x="271.71" y="338.3732">SoccerSettigs.cs</text><line style="stroke:#181818;stroke-width:1;" x1="262.71" x2="545.2871" y1="345.675" y2="345.675"/><text fill="#000000" font-family="sans-serif" font-size="14" lengthAdjust="spacing" textLength="13.3506" x="271.71" y="362.6701">...</text></g><!--entity STATS--><g class="entity" data-entity="STATS" data-source-line="18" data-uid="ent0004" id="entity_STATS"><path d="M261.6,44.5 L261.6,75.7969 A2.5,2.5 0 0 0 264.1,78.2969 L397.8949,78.2969 A2.5,2.5 0 0 0 400.3949,75.7969 L400.3949,52 L390.3949,42 L264.1,42 A2.5,2.5 0 0 0 261.6,44.5" fill="#F1F1F1" style="stroke:#181818;stroke-width:0.5;"/><path d="M390.3949,42 L390.3949,49.5 A2.5,2.5 0 0 0 392.8949,52 L400.3949,52" fill="#F1F1F1" style="stroke:#181818;stroke-width:0.5;"/><text fill="#000000" font-family="sans-serif" font-size="14" lengthAdjust="spacing" textLength="118.7949" x="271.6" y="64.9951">StatsRecorder.cs</text></g><!--entity TRAIN--><g class="entity" data-entity="TRAIN" data-source-line="21" data-uid="ent0006" id="entity_TRAIN"><polygon fill="#F1F1F1" points="330.99,484.97,467.0154,484.97,477.0154,503.1184,467.0154,521.2669,330.99,521.2669,340.99,503.1184" style="stroke:#181818;stroke-width:0.5;"/><text fill="#000000" font-family="sans-serif" font-size="14" lengthAdjust="spacing" textLength="106.0254" x="350.99" y="507.9651">mlagents-learn</text></g><!--entity RESULTS--><g class="entity" data-entity="RESULTS" data-source-line="22" data-uid="ent0007" id="entity_RESULTS"><path d="M331.04,613.26 C331.04,603.26 401.9961,603.26 401.9961,603.26 C401.9961,603.26 472.9521,603.26 472.9521,613.26 L472.9521,760.635 C472.9521,770.635 401.9961,770.635 401.9961,770.635 C401.9961,770.635 331.04,770.635 331.04,760.635 L331.04,613.26" fill="#F1F1F1" style="stroke:#181818;stroke-width:0.5;"/><path d="M331.04,613.26 C331.04,623.26 401.9961,623.26 401.9961,623.26 C401.9961,623.26 472.9521,623.26 472.9521,613.26" fill="none" style="stroke:#181818;stroke-width:0.5;"/><text fill="#000000" font-family="sans-serif" font-size="14" lengthAdjust="spacing" textLength="47.209" x="341.04" y="640.2551">results</text><path d="M331.04,638.5569 C331.04,648.5569 401.9961,648.5569 401.9961,648.5569 C401.9961,648.5569 472.9521,648.5569 472.9521,638.5569" fill="none" style="stroke:#181818;stroke-width:1;"/><text fill="#000000" font-family="sans-serif" font-size="14" lengthAdjust="spacing" textLength="121.9121" x="341.04" y="660.552">run_id_1_agent_x</text><text fill="#000000" font-family="sans-serif" font-size="14" lengthAdjust="spacing" textLength="121.9121" x="341.04" y="676.8489">run_id_2_agent_x</text><text fill="#000000" font-family="sans-serif" font-size="14" lengthAdjust="spacing" textLength="121.9121" x="341.04" y="693.1457">run_id_1_agent_y</text><text fill="#000000" font-family="sans-serif" font-size="14" lengthAdjust="spacing" textLength="120.9756" x="341.04" y="709.4426">run_id_1_agent_z</text><text fill="#000000" font-family="sans-serif" font-size="14" lengthAdjust="spacing" textLength="120.9756" x="341.04" y="725.7395">run_id_2_agent_z</text><text fill="#000000" font-family="sans-serif" font-size="14" lengthAdjust="spacing" textLength="120.9756" x="341.04" y="742.0364">run_id_3_agent_z</text><text fill="#000000" font-family="sans-serif" font-size="14" lengthAdjust="spacing" textLength="13.3506" x="367.7412" y="758.3332">...</text></g><!--entity COLLECTOR--><g class="entity" data-entity="COLLECTOR" data-source-line="36" data-uid="ent0009" id="entity_COLLECTOR"><rect fill="#F1F1F1" height="46.2969" rx="2.5" ry="2.5" style="stroke:#181818;stroke-width:0.5;" width="165.3779" x="52.31" y="479.97"/><rect fill="#F1F1F1" height="10" style="stroke:#181818;stroke-width:0.5;" width="15" x="197.6879" y="484.97"/><rect fill="#F1F1F1" height="2" style="stroke:#181818;stroke-width:0.5;" width="4" x="195.6879" y="486.97"/><rect fill="#F1F1F1" height="2" style="stroke:#181818;stroke-width:0.5;" width="4" x="195.6879" y="490.97"/><text fill="#000000" font-family="sans-serif" font-size="14" lengthAdjust="spacing" textLength="125.3779" x="67.31" y="512.9651">data-collection.py</text></g><!--entity CSV--><g class="entity" data-entity="CSV" data-source-line="37" data-uid="ent0010" id="entity_CSV"><path d="M25.25,631.36 L66.25,631.36 A3.75,3.75 0 0 1 68.75,633.86 L75.75,652.36 L170.7402,652.36 A2.5,2.5 0 0 1 173.2402,654.86 L173.2402,740.0475 A2.5,2.5 0 0 1 170.7402,742.5475 L25.25,742.5475 A2.5,2.5 0 0 1 22.75,740.0475 L22.75,633.86 A2.5,2.5 0 0 1 25.25,631.36" fill="#F1F1F1" style="stroke:#181818;stroke-width:0.5;"/><line style="stroke:#181818;stroke-width:0.5;" x1="22.75" x2="75.75" y1="652.36" y2="652.36"/><text fill="#000000" font-family="sans-serif" font-size="14" lengthAdjust="spacing" textLength="81.7441" x="32.75" y="672.3551">agent-data/</text><line style="stroke:#181818;stroke-width:1;" x1="23.75" x2="172.2402" y1="675.6569" y2="675.6569"/><text fill="#000000" font-family="sans-serif" font-size="14" lengthAdjust="spacing" textLength="66.165" x="59.4512" y="692.652">static.csv</text><text fill="#000000" font-family="sans-serif" font-size="14" lengthAdjust="spacing" textLength="93.7891" x="59.4512" y="708.9489">summary.csv</text><text fill="#000000" font-family="sans-serif" font-size="14" lengthAdjust="spacing" textLength="81.9629" x="59.4512" y="725.2457">training.csv</text></g><!--link STATS to SCRIPTS--><g class="link" data-entity-1="STATS" data-entity-2="SCRIPTS" data-source-line="46" data-uid="lnk11" id="link_STATS_SCRIPTS"><path d="M337.22,78.67 C343.5,96.33 351.7411,140.5363 362.3511,170.3963" fill="none" id="STATS-to-SCRIPTS" style="stroke:#181818;stroke-width:1;"/><polygon fill="#181818" points="364.36,176.05,365.1158,166.2302,362.6859,171.3386,357.5775,168.9087,364.36,176.05" style="stroke:#181818;stroke-width:1;"/><text fill="#000000" font-family="sans-serif" font-size="13" lengthAdjust="spacing" textLength="445.0215" x="354" y="121.3669">instantiated inside each script to log necessary data to TensorBoard</text></g><!--link SCRIPTS to TRAIN--><g class="link" data-entity-1="SCRIPTS" data-entity-2="TRAIN" data-source-line="47" data-uid="lnk12" id="link_SCRIPTS_TRAIN"><path d="M404,380.25 C404,420.81 404,456.21 404,478.78" fill="none" id="SCRIPTS-to-TRAIN" style="stroke:#181818;stroke-width:1;"/><polygon fill="#181818" points="404,484.78,408,475.78,404,479.78,400,475.78,404,484.78" style="stroke:#181818;stroke-width:1;"/><text fill="#000000" font-family="sans-serif" font-size="13" lengthAdjust="spacing" textLength="442.3364" x="405" y="425.0369">use mlagents-learn to run each script with the StatsRecorder object</text></g><!--link TRAIN to RESULTS--><g class="link" data-entity-1="TRAIN" data-entity-2="RESULTS" data-source-line="48" data-uid="lnk13" id="link_TRAIN_RESULTS"><path d="M403.81,521.55 C403.6,540.57 403.3166,566.4204 402.9766,597.0404" fill="none" id="TRAIN-to-RESULTS" style="stroke:#181818;stroke-width:1;"/><polygon fill="#181818" points="402.91,603.04,407.0097,594.085,402.9655,598.0403,399.0102,593.9961,402.91,603.04" style="stroke:#181818;stroke-width:1;"/><text fill="#000000" font-family="sans-serif" font-size="13" lengthAdjust="spacing" textLength="253.1382" x="405" y="569.3269">data logged and saved to TensorBoard</text></g><!--link COLLECTOR to RESULTS--><g class="link" data-entity-1="COLLECTOR" data-entity-2="RESULTS" data-source-line="49" data-uid="lnk14" id="link_COLLECTOR_RESULTS"><path d="M192.56,526.76 C211.14,535.03 231.46,545.12 249,556.26 C277.36,574.29 301.5471,593.219 326.3271,614.709" fill="none" id="COLLECTOR-to-RESULTS" style="stroke:#181818;stroke-width:1;"/><polygon fill="#181818" points="330.86,618.64,326.6814,609.7215,327.0826,615.3641,321.44,615.7653,330.86,618.64" style="stroke:#181818;stroke-width:1;"/><text fill="#000000" font-family="sans-serif" font-size="13" lengthAdjust="spacing" textLength="36.334" x="273" y="569.3269">reads</text></g><!--link COLLECTOR to CSV--><g class="link" data-entity-1="COLLECTOR" data-entity-2="CSV" data-source-line="50" data-uid="lnk15" id="link_COLLECTOR_CSV"><path d="M84.17,526.52 C72.53,534.2 61.63,544.02 55,556.26 C42.4,579.52 46.3355,601.71 57.7255,625.46" fill="none" id="COLLECTOR-to-CSV" style="stroke:#181818;stroke-width:1;"/><polygon fill="#181818" points="60.32,630.87,60.0349,621.0253,58.1579,626.3616,52.8215,624.4846,60.32,630.87" style="stroke:#181818;stroke-width:1;"/><text fill="#000000" font-family="sans-serif" font-size="13" lengthAdjust="spacing" textLength="188.9443" x="56" y="569.3269">translates data to csv format</text></g><!--SRC=[RLF1Rjim3BtxAuZSRMFBBOS1gHDW1TAriDnTXY9GPSvH8Kk6f7JDXltxA3cE7MU-s7ead_WUQOl2SzqeXCMpblu4JzQy4RQ0Fmd0JwDgjC2AylwfOZy8WI4XNpk7tkKFktJTeAQlxGTlEuKkZsbfciRtSdF7bSgPiBBpirY8B3UnF1Dk0dtbjkPJUAXWHWYq_sUBF7t2KDQV0cTXjBT6gNcCeVUoSVDxiYoBxvTWWWpkCC-zAr4OMqUE1N07h5fNBFcRsD75odAffMvw0pjh13e7YrP5FIvLoAsEnLMvllz6EJNt_9KxX7BBddSLW-2pHNTKFZJLjsIFUY_h_QTzfDb_ZD3dMsZ8Ejr2lsyB9z1o0lLFRyGBQPoAt53BOH62jejMOThEQ2g7HP2KYc2tyDBeh3j5nSNZRhSjgiToNAs2VGzouxLfACkJSGhXSUIx56Ju-mWTsvRRqnNcpxQVmTXmd0wHVHaMU0LI4v_sadkimq7M2CZ50LpSAF06b6b0Or16TyJX1BH2xOozCxIOoPajCiSXmWgEDB_h6OSgilMA_fVq1_07XAjj0lCQ_gYavmgimoQi-lkffORwvRe6nz_fQzRGnTTPiKLUkrcK3AS8sQMT8XVSHI4PHqEnBVV_0000]--></g></svg>